<?xml version="1.0" standalone="no"?>
<!DOCTYPE svg PUBLIC "-//W3C//DTD SVG 20010904//EN"
 "http://www.w3.org/TR/2001/REC-SVG-20010904/DTD/svg10.dtd">
<svg version="1.0" xmlns="http://www.w3.org/2000/svg"
 width="512.000000pt" height="512.000000pt" viewBox="0 0 512.000000 512.000000"
 preserveAspectRatio="xMidYMid meet">

<g transform="translate(0.000000,512.000000) scale(0.100000,-0.100000)"
fill="#000000" stroke="none">
<path d="M2315 5109 c-800 -83 -1501 -518 -1927 -1196 -604 -961 -490 -2237
274 -3068 425 -462 951 -737 1583 -827 119 -17 512 -16 635 1 622 86 1148 360
1572 820 349 378 572 862 650 1406 17 118 17 512 0 630 -71 496 -263 944 -557
1300 -418 506 -982 825 -1630 921 -123 18 -478 26 -600 13z m1385 -1564 c59
-56 60 -95 9 -470 -45 -334 -200 -1276 -255 -1545 -21 -100 -59 -184 -102
-221 -34 -30 -38 -31 -111 -27 -52 3 -90 12 -120 27 -67 35 -841 559 -885 600
-47 44 -69 91 -60 129 13 52 75 120 296 327 273 254 562 537 584 570 21 32 4
65 -33 65 -33 0 -12 14 -623 -394 -289 -192 -550 -362 -580 -377 -90 -44 -154
-53 -259 -35 -88 15 -361 94 -474 136 -119 45 -150 105 -84 167 42 40 48 43
498 238 1205 524 1813 774 2013 830 79 22 150 15 186 -20z"/>
</g>
</svg>
